# xmcd
#
# Track frame offsets: 
#        150
#        19681
#        44957
#        70927
#        94543
#        112437
#        129529
#        148172
#        170627
#        189321
#        206424
#
# Disc length: 2991 seconds
#
# Revision: 2
# Processed by: cddbd v1.5.2PL0 Copyright (c) Steve Scherf et al.
# Submitted via: ExactAudioCopy v1.3
#
DISCID=a90bad0b
DTITLE=Lorenzo Smith - Lorenzo (Digitally Remastered)
DYEAR=1992
DGENRE=Funk
TTITLE0=Real Love
TTITLE1=Saying My Love
TTITLE2=Make Love 2 Me
TTITLE3=I Can't Stand The Pain
TTITLE4=Kiss You, Please You
TTITLE5=Walk With You
TTITLE6=I Can't Believe It
TTITLE7=Natasha
TTITLE8=My Love
TTITLE9=Tic Tok
TTITLE10=Real Love ( Block Radio Mix)
EXTD=
EXTT0=
EXTT1=
EXTT2=
EXTT3=
EXTT4=
EXTT5=
EXTT6=
EXTT7=
EXTT8=
EXTT9=
EXTT10=
PLAYORDER=
